# File created by Blade
# Date/Time:  Thu Sep 25 15:31:15 2014
# Frame Rate: 120.000 fps
#------------------------------------------------------
:FULLY-SPECIFIED
:DEGREES
688
root -4.857333 34.291250 -0.167991 207.281498 -55.352179 -63.516595
Spine 5.046585 17.354611 -15.739034
Head -86.615998 8.492407 -1.340285
LeftShoulder -15.289143 -7.578764 33.998453
LeftArm 90.504637 -56.191239 -66.176811
LeftForeArm 14.431123 -0.000000 34.201184
LeftHand -44.032801 -0.000000 85.769194
LeftHandThumb1 -26.253704 0.000000 33.147579
RightShoulder -10.724956 20.821856 -36.698686
RightArm 91.812941 45.607602 55.139921
RightForeArm -9.399718 -0.000000 28.487991
RightHand -9.235258 -0.000000 -68.177336
RightHandThumb1 -24.326973 -0.000000 -32.862282
LeftUpLeg -115.362475 31.597259 3.479216
LeftLeg 6.384048 -0.000000 -0.000000
LeftFoot -17.508283 13.100369 -30.732880
LeftToeBase -2.562636 -0.000000 0.000000
RightUpLeg 0.244238 -14.909676 -18.901474
RightLeg 17.178161 -0.000000 -0.000000
RightFoot 35.867263 -6.237231 -9.528592
RightToeBase 12.200310 -0.000000 -0.000000
689
root -4.526098 34.151111 -0.202345 206.833112 -55.256072 -64.629488
Spine 5.754964 17.401872 -15.864784
Head -86.260867 8.571975 -1.336634
LeftShoulder -14.736685 -7.357699 34.126491
LeftArm 89.148246 -56.655811 -64.701394
LeftForeArm 13.904963 -0.000000 33.829846
LeftHand -44.058065 -0.000000 85.401377
LeftHandThumb1 -26.253704 0.000000 33.147579
RightShoulder -10.402202 21.238375 -37.009189
RightArm 90.910926 45.199544 54.518386
RightForeArm -9.117804 -0.000000 27.885454
RightHand -9.269639 0.000000 -67.699193
RightHandThumb1 -24.326973 -0.000000 -32.862282
LeftUpLeg -115.342798 31.398343 3.681161
LeftLeg 7.066970 -0.000000 -0.000000
LeftFoot -16.561479 13.482107 -30.722744
LeftToeBase -2.094935 -0.000000 0.000000
RightUpLeg -0.545774 -16.407965 -17.807368
RightLeg 15.912549 -0.000000 -0.000000
RightFoot 35.319873 -5.657246 -9.153969
RightToeBase 11.704777 -0.000000 -0.000000
690
root -4.183530 33.995076 -0.235504 206.418901 -55.173256 -65.836558
Spine 6.428878 17.466396 -16.080299
Head -85.890714 8.844994 -1.264240
LeftShoulder -14.422386 -7.128453 34.393528
LeftArm 88.130727 -56.691279 -63.573663
LeftForeArm 13.561255 -0.000000 33.274521
LeftHand -43.943244 -0.000000 84.937201
LeftHandThumb1 -26.253704 0.000000 33.147579
RightShoulder -10.135616 21.951569 -37.385640
RightArm 89.567865 44.527755 53.797263
RightForeArm -8.888357 -0.000000 27.421072
RightHand -9.226826 0.000000 -67.024482
RightHandThumb1 -24.326973 -0.000000 -32.862282
LeftUpLeg -115.219301 31.219338 4.025381
LeftLeg 7.981267 -0.000000 -0.000000
LeftFoot -15.760326 14.206224 -30.855614
LeftToeBase -3.083718 -0.000000 0.000000
RightUpLeg -1.338349 -17.845464 -16.702871
RightLeg 14.757251 -0.000000 -0.000000
RightFoot 34.616171 -5.081755 -8.522316
RightToeBase 12.377569 -0.000000 -0.000000
691
root -3.851998 33.838980 -0.257143 206.145186 -54.941441 -67.120901
Spine 7.013261 17.609109 -16.373161
Head -85.553481 8.954272 -1.317673
LeftShoulder -13.845980 -6.754539 34.358732
LeftArm 86.687623 -57.203230 -61.543555
LeftForeArm 12.756226 -0.000000 32.498331
LeftHand -44.047892 0.000000 84.567194
LeftHandThumb1 -26.253704 0.000000 33.147579
RightShoulder -9.880958 22.678572 -37.862698
RightArm 88.287117 43.815514 52.998256
RightForeArm -8.328442 -0.000000 26.777664
RightHand -9.165353 -0.000000 -66.575707
RightHandThumb1 -24.326973 -0.000000 -32.862282
LeftUpLeg -115.123166 31.072693 4.280052
LeftLeg 9.328562 -0.000000 -0.000000
LeftFoot -15.152986 15.733824 -27.521798
LeftToeBase -12.665704 -0.000000 0.000000
RightUpLeg -2.453450 -18.919427 -15.551793
RightLeg 13.902559 -0.000000 -0.000000
RightFoot 33.908003 -4.672604 -7.913126
RightToeBase 12.398404 -0.000000 -0.000000
692
root -3.500894 33.667052 -0.270723 206.103999 -54.811244 -68.733773
Spine 7.591768 17.572365 -16.711582
Head -85.067619 8.984534 -1.377547
LeftShoulder -13.170868 -7.214813 34.878200
LeftArm 83.143872 -57.275872 -58.359657
LeftForeArm 11.878441 -0.000000 32.055090
LeftHand -43.700389 -0.000000 84.432183
LeftHandThumb1 -26.253704 0.000000 33.147579
RightShoulder -9.624926 23.506461 -38.491505
RightArm 86.829413 42.960360 52.135639
RightForeArm -8.057830 -0.000000 26.018272
RightHand -9.180874 -0.000000 -65.891107
RightHandThumb1 -24.326973 -0.000000 -32.862282
LeftUpLeg -115.002733 30.693950 4.617436
LeftLeg 11.807104 -0.000000 -0.000000
LeftFoot -16.735140 17.004960 -24.299376
LeftToeBase -14.888677 -0.000000 0.000000
RightUpLeg -3.530117 -20.169202 -14.527864
RightLeg 13.240905 -0.000000 -0.000000
RightFoot 33.159284 -3.948351 -7.395782
RightToeBase 12.596209 -0.000000 -0.000000
693
root -3.147362 33.495388 -0.290560 206.003396 -54.743066 -70.283680
Spine 8.108444 17.485426 -17.048119
Head -84.492154 9.208510 -1.316262
LeftShoulder -12.742251 -6.985501 35.314727
LeftArm 81.182269 -57.246981 -56.495625
LeftForeArm 11.412233 -0.000000 31.440229
LeftHand -44.242759 0.000000 83.645939
LeftHandThumb1 -26.253704 0.000000 33.147579
RightShoulder -9.301223 24.495715 -39.044049
RightArm 84.983452 42.036537 50.821619
RightForeArm -7.545894 -0.000000 25.205866
RightHand -9.196508 0.000000 -64.993497
RightHandThumb1 -24.326973 -0.000000 -32.862282
LeftUpLeg -115.153176 30.134432 4.564938
LeftLeg 15.253327 -0.000000 -0.000000
LeftFoot -19.582374 16.525288 -23.803127
LeftToeBase -13.270629 -0.000000 0.000000
RightUpLeg -4.671894 -21.183522 -13.361706
RightLeg 12.724422 -0.000000 -0.000000
RightFoot 32.433666 -3.152096 -7.100719
RightToeBase 12.367691 -0.000000 -0.000000
694
root -2.782317 33.319855 -0.318025 205.756368 -54.668696 -71.772513
Spine 8.607914 17.399791 -17.322463
Head -83.727357 9.537646 -1.250794
LeftShoulder -11.780397 -5.669230 34.989030
LeftArm 79.804717 -58.356105 -53.865380
LeftForeArm 10.024504 -0.000000 30.163871
LeftHand -44.345154 0.000000 83.225927
LeftHandThumb1 -26.253704 0.000000 33.147579
RightShoulder -8.813289 25.694738 -39.640612
RightArm 82.778667 40.985029 49.273335
RightForeArm -6.903782 -0.000000 24.389278
RightHand -9.269882 -0.000000 -63.820595
RightHandThumb1 -24.326973 -0.000000 -32.862282
LeftUpLeg -115.311877 29.516899 4.153384
LeftLeg 18.448551 -0.000000 -0.000000
LeftFoot -22.444828 15.547231 -23.449856
LeftToeBase -9.331674 -0.000000 0.000000
RightUpLeg -5.740168 -21.934486 -12.172000
RightLeg 12.273360 -0.000000 -0.000000
RightFoot 32.091875 -2.454699 -6.558971
RightToeBase 11.501729 -0.000000 -0.000000
